
      <svg data-logo="logo" xmlns="http://www.w3.org/2000/svg" viewBox="0 0 739 42">
        <g id="logogram" transform="translate(0, 1) rotate(0) "><path d="M28.7089 33.1053L1.9434 14.6424C-0.768963 12.7715 0.15306 8.87601 3.53531 7.95996L31.9823 0.239132C32.5849 0.0216955 33.2306 -0.0488885 33.866 0.0332432C34.5013 0.115375 35.1079 0.34785 35.6355 0.711378C36.1629 1.07491 36.5961 1.559 36.899 2.12348C37.2018 2.68795 37.3658 3.31654 37.3771 3.95706L35.6912 30.1393C35.4913 33.247 31.4213 34.9762 28.7089 33.1053Z" fill="#E9327C"/><path d="M20.2197 37.6632L4.45132 6.82618C4.09087 6.12072 3.93226 5.32941 3.99297 4.53953C4.05367 3.74965 4.33135 2.99187 4.79536 2.34978C5.25939 1.70769 5.89172 1.20622 6.62264 0.900668C7.35356 0.595117 8.15466 0.497365 8.93761 0.618198L38.1604 5.12834C38.8331 5.23219 39.4717 5.49425 40.0236 5.89298C40.5753 6.29172 41.0245 6.81572 41.3344 7.42191C41.6441 8.0281 41.8057 8.69917 41.8055 9.37994C41.8054 10.0607 41.6437 10.7317 41.3338 11.3378L27.8719 37.6647C27.5104 38.3681 26.962 38.9583 26.2869 39.3703C25.6118 39.7823 24.8363 40.0002 24.0454 40C23.2545 39.9999 22.479 39.7817 21.804 39.3695C21.1291 38.9571 20.5809 38.3668 20.2197 37.6632Z" fill="#1DACE3"/><path d="M37.3055 4.9955L22.7382 2.74713L4.85269 7.60342L11.9917 21.5695L28.7089 33.1053C29.0777 33.357 29.4834 33.5497 29.9114 33.6767L36.2612 21.2592L37.3055 4.9955Z" fill="#001A49"/></g>
        <g id="logotype" transform="translate(48, 7.5)"><path fill="#111111" d="M12.60 27L6.84 27L15.54 1.54L22.37 1.54L31.29 27L25.50 27L21.42 14.71Q20.68 12.34 19.92 9.51Q19.16 6.68 18.32 3.33L18.32 3.33L19.45 3.33Q18.65 6.70 17.94 9.54Q17.23 12.39 16.53 14.71L16.53 14.71L12.60 27ZM25.86 21.09L12.27 21.09L12.27 17.00L25.86 17.00L25.86 21.09ZM32.16 1.54L37.37 1.54L37.37 27L32.16 27L32.16 1.54ZM50.94 27L45.73 27L45.73 1.54L55.66 1.54Q58.56 1.54 60.60 2.56Q62.63 3.59 63.70 5.45Q64.77 7.31 64.77 9.82L64.77 9.82Q64.77 12.34 63.68 14.16Q62.60 15.98 60.54 16.94Q58.48 17.91 55.54 17.91L55.54 17.91L48.80 17.91L48.80 13.69L54.70 13.69Q56.31 13.69 57.33 13.25Q58.36 12.82 58.87 11.95Q59.38 11.09 59.38 9.82L59.38 9.82Q59.38 8.53 58.87 7.65Q58.36 6.77 57.32 6.30Q56.29 5.84 54.68 5.84L54.68 5.84L50.94 5.84L50.94 27ZM65.67 27L59.90 27L53.69 15.41L59.35 15.41L65.67 27ZM74.95 27.38L74.95 27.38Q72.03 27.38 69.91 26.18Q67.79 24.98 66.65 22.78Q65.52 20.57 65.52 17.55L65.52 17.55Q65.52 14.59 66.64 12.37Q67.77 10.15 69.84 8.90Q71.91 7.65 74.69 7.65L74.69 7.65Q76.57 7.65 78.20 8.25Q79.82 8.85 81.05 10.06Q82.28 11.26 82.97 13.07Q83.67 14.88 83.67 17.34L83.67 17.34L83.67 18.78L67.62 18.78L67.62 15.57L81.15 15.57L78.76 16.42Q78.76 14.93 78.31 13.83Q77.85 12.73 76.96 12.12Q76.06 11.52 74.73 11.52L74.73 11.52Q73.41 11.52 72.48 12.13Q71.55 12.75 71.07 13.80Q70.59 14.85 70.59 16.20L70.59 16.20L70.59 18.47Q70.59 20.13 71.15 21.26Q71.70 22.39 72.70 22.95Q73.70 23.51 75.03 23.51L75.03 23.51Q75.94 23.51 76.68 23.26Q77.41 23.00 77.93 22.50Q78.45 21.99 78.73 21.26L78.73 21.26L83.37 22.13Q82.91 23.70 81.77 24.89Q80.62 26.08 78.91 26.73Q77.19 27.38 74.95 27.38ZM92.48 27.38L92.48 27.38Q90.17 27.38 88.40 26.72Q86.62 26.06 85.49 24.80Q84.36 23.55 84.04 21.77L84.04 21.77L88.81 20.95Q89.18 22.28 90.12 22.95Q91.06 23.62 92.64 23.62L92.64 23.62Q94.09 23.62 94.94 23.06Q95.80 22.51 95.80 21.65L95.80 21.65Q95.80 20.90 95.19 20.42Q94.58 19.94 93.34 19.69L93.34 19.69L90.04 19.00Q87.27 18.44 85.90 17.08Q84.53 15.72 84.53 13.58L84.53 13.58Q84.53 11.74 85.54 10.41Q86.55 9.09 88.35 8.37Q90.14 7.65 92.57 7.65L92.57 7.65Q94.82 7.65 96.48 8.28Q98.14 8.90 99.16 10.05Q100.19 11.19 100.53 12.75L100.53 12.75L95.98 13.55Q95.69 12.58 94.87 11.95Q94.04 11.33 92.64 11.33L92.64 11.33Q91.37 11.33 90.52 11.86Q89.66 12.39 89.66 13.26L89.66 13.26Q89.66 13.99 90.22 14.49Q90.77 14.99 92.12 15.26L92.12 15.26L95.56 15.94Q98.33 16.51 99.68 17.78Q101.03 19.05 101.03 21.10L101.03 21.10Q101.03 22.98 99.93 24.39Q98.84 25.80 96.92 26.59Q94.99 27.38 92.48 27.38ZM108.80 27.24L108.80 27.24Q106.82 27.24 105.33 26.38Q103.84 25.51 103.03 23.90Q102.22 22.28 102.22 20.04L102.22 20.04L102.22 7.89L107.35 7.89L107.35 19.16Q107.35 20.93 108.27 21.94Q109.19 22.95 110.80 22.95L110.80 22.95Q111.89 22.95 112.73 22.48Q113.57 22.01 114.04 21.11Q114.51 20.22 114.51 18.95L114.51 18.95L114.51 7.89L119.64 7.89L119.64 27L114.80 27L114.73 22.23L115.02 22.23Q114.27 24.64 112.72 25.94Q111.18 27.24 108.80 27.24ZM126.86 27L121.74 27L121.74 7.89L126.49 7.89L126.74 12.64L126.37 12.64Q126.81 10.88 127.67 9.77Q128.54 8.66 129.70 8.13Q130.86 7.60 132.14 7.60L132.14 7.60Q134.21 7.60 135.48 8.91Q136.74 10.22 137.34 12.95L137.34 12.95L136.74 12.95Q137.17 11.12 138.13 9.94Q139.10 8.75 140.42 8.18Q141.75 7.60 143.20 7.60L143.20 7.60Q144.96 7.60 146.34 8.37Q147.71 9.14 148.51 10.59Q149.30 12.03 149.30 14.11L149.30 14.11L149.30 27L144.17 27L144.17 15.09Q144.17 13.46 143.29 12.68Q142.41 11.89 141.13 11.89L141.13 11.89Q140.18 11.89 139.47 12.31Q138.76 12.73 138.37 13.48Q137.99 14.23 137.99 15.24L137.99 15.24L137.99 27L133.03 27L133.03 14.95Q133.03 13.55 132.20 12.72Q131.37 11.89 130.06 11.89L130.06 11.89Q129.15 11.89 128.43 12.30Q127.70 12.71 127.28 13.51Q126.86 14.30 126.86 15.45L126.86 15.45L126.86 27ZM160.03 27.38L160.03 27.38Q157.11 27.38 154.99 26.18Q152.87 24.98 151.73 22.78Q150.60 20.57 150.60 17.55L150.60 17.55Q150.60 14.59 151.73 12.37Q152.85 10.15 154.92 8.90Q156.99 7.65 159.78 7.65L159.78 7.65Q161.65 7.65 163.28 8.25Q164.90 8.85 166.13 10.06Q167.36 11.26 168.06 13.07Q168.75 14.88 168.75 17.34L168.75 17.34L168.75 18.78L152.70 18.78L152.70 15.57L166.24 15.57L163.84 16.42Q163.84 14.93 163.39 13.83Q162.94 12.73 162.04 12.12Q161.14 11.52 159.81 11.52L159.81 11.52Q158.49 11.52 157.56 12.13Q156.63 12.75 156.15 13.80Q155.67 14.85 155.67 16.20L155.67 16.20L155.67 18.47Q155.67 20.13 156.23 21.26Q156.78 22.39 157.78 22.95Q158.78 23.51 160.12 23.51L160.12 23.51Q161.02 23.51 161.76 23.26Q162.49 23.00 163.01 22.50Q163.53 21.99 163.81 21.26L163.81 21.26L168.46 22.13Q168.00 23.70 166.85 24.89Q165.71 26.08 163.99 26.73Q162.27 27.38 160.03 27.38ZM186.86 27L176.11 27L176.11 1.54L186.21 1.54Q189.01 1.54 190.88 2.38Q192.75 3.23 193.69 4.70Q194.62 6.17 194.62 8.08L194.62 8.08Q194.62 9.59 194.02 10.70Q193.42 11.82 192.39 12.53Q191.35 13.24 190.04 13.55L190.04 13.55L190.04 13.81Q191.47 13.86 192.75 14.62Q194.02 15.38 194.81 16.74Q195.61 18.10 195.61 19.99L195.61 19.99Q195.61 21.99 194.62 23.58Q193.63 25.17 191.69 26.09Q189.75 27 186.86 27L186.86 27ZM181.32 15.81L181.32 22.71L185.83 22.71Q188.12 22.71 189.18 21.82Q190.24 20.93 190.24 19.50L190.24 19.50Q190.24 18.40 189.72 17.57Q189.20 16.75 188.24 16.28Q187.29 15.81 185.97 15.81L185.97 15.81L181.32 15.81ZM181.32 5.79L181.32 12.23L185.44 12.23Q186.55 12.23 187.44 11.83Q188.33 11.43 188.83 10.69Q189.34 9.94 189.34 8.92L189.34 8.92Q189.34 7.53 188.35 6.66Q187.37 5.79 185.54 5.79L185.54 5.79L181.32 5.79ZM203.45 27.24L203.45 27.24Q201.47 27.24 199.98 26.38Q198.49 25.51 197.68 23.90Q196.87 22.28 196.87 20.04L196.87 20.04L196.87 7.89L202.00 7.89L202.00 19.16Q202.00 20.93 202.92 21.94Q203.84 22.95 205.45 22.95L205.45 22.95Q206.54 22.95 207.38 22.48Q208.22 22.01 208.69 21.11Q209.16 20.22 209.16 18.95L209.16 18.95L209.16 7.89L214.29 7.89L214.29 27L209.45 27L209.38 22.23L209.67 22.23Q208.92 24.64 207.37 25.94Q205.83 27.24 203.45 27.24ZM221.51 27L216.39 27L216.39 7.89L221.51 7.89L221.51 27ZM218.95 5.40L218.95 5.40Q217.79 5.40 216.97 4.63Q216.15 3.86 216.15 2.77L216.15 2.77Q216.15 1.67 216.97 0.90Q217.79 0.13 218.95 0.13L218.95 0.13Q220.11 0.13 220.94 0.90Q221.77 1.66 221.77 2.77L221.77 2.77Q221.77 3.86 220.94 4.63Q220.11 5.40 218.95 5.40ZM223.60 1.54L228.72 1.54L228.72 27L223.60 27L223.60 1.54ZM237.80 27.32L237.80 27.32Q235.59 27.32 233.82 26.19Q232.05 25.05 231.03 22.86Q230.00 20.66 230.00 17.48L230.00 17.48Q230.00 14.22 231.06 12.03Q232.12 9.84 233.88 8.75Q235.64 7.65 237.76 7.65L237.76 7.65Q239.38 7.65 240.46 8.20Q241.54 8.75 242.20 9.55Q242.87 10.35 243.20 11.11L243.20 11.11L243.37 11.11L243.37 1.54L248.49 1.54L248.49 27L243.45 27L243.45 23.94L243.20 23.94Q242.85 24.71 242.18 25.49Q241.50 26.27 240.43 26.79Q239.35 27.32 237.80 27.32ZM239.37 23.21L239.37 23.21Q240.67 23.21 241.59 22.49Q242.51 21.77 242.99 20.48Q243.47 19.19 243.47 17.46L243.47 17.46Q243.47 15.72 243.00 14.45Q242.53 13.17 241.61 12.47Q240.68 11.76 239.37 11.76L239.37 11.76Q238.02 11.76 237.10 12.49Q236.19 13.23 235.73 14.51Q235.27 15.79 235.27 17.46L235.27 17.46Q235.27 19.14 235.74 20.44Q236.21 21.74 237.12 22.47Q238.03 23.21 239.37 23.21ZM259.22 27.38L259.22 27.38Q256.30 27.38 254.18 26.18Q252.06 24.98 250.93 22.78Q249.79 20.57 249.79 17.55L249.79 17.55Q249.79 14.59 250.92 12.37Q252.05 10.15 254.11 8.90Q256.18 7.65 258.97 7.65L258.97 7.65Q260.85 7.65 262.47 8.25Q264.09 8.85 265.32 10.06Q266.56 11.26 267.25 13.07Q267.94 14.88 267.94 17.34L267.94 17.34L267.94 18.78L251.89 18.78L251.89 15.57L265.43 15.57L263.03 16.42Q263.03 14.93 262.58 13.83Q262.13 12.73 261.23 12.12Q260.33 11.52 259.00 11.52L259.00 11.52Q257.69 11.52 256.75 12.13Q255.82 12.75 255.34 13.80Q254.87 14.85 254.87 16.20L254.87 16.20L254.87 18.47Q254.87 20.13 255.42 21.26Q255.98 22.39 256.98 22.95Q257.98 23.51 259.31 23.51L259.31 23.51Q260.21 23.51 260.95 23.26Q261.68 23.00 262.21 22.50Q262.73 21.99 263.00 21.26L263.00 21.26L267.65 22.13Q267.19 23.70 266.04 24.89Q264.90 26.08 263.18 26.73Q261.46 27.38 259.22 27.38ZM274.29 27L269.17 27L269.17 7.89L274.12 7.89L274.12 11.23L274.33 11.23Q274.86 9.45 276.10 8.54Q277.34 7.64 278.94 7.64L278.94 7.64Q279.34 7.64 279.79 7.68Q280.24 7.72 280.60 7.81L280.60 7.81L280.60 12.39Q280.26 12.27 279.61 12.20Q278.96 12.13 278.38 12.13L278.38 12.13Q277.22 12.13 276.28 12.64Q275.34 13.14 274.82 14.04Q274.29 14.93 274.29 16.13L274.29 16.13L274.29 27ZM294.87 27.38L294.87 27.38Q292.24 27.38 290.32 26.42Q288.41 25.46 287.38 23.86Q286.36 22.25 286.36 20.28L286.36 20.28Q286.36 18.75 286.96 17.58Q287.57 16.42 288.65 15.44Q289.74 14.46 291.16 13.48L291.16 13.48L296.01 10.27Q296.54 9.93 296.97 9.49Q297.40 9.06 297.64 8.55Q297.89 8.05 297.89 7.47L297.89 7.47Q297.89 6.59 297.28 5.98Q296.66 5.36 295.52 5.36L295.52 5.36Q294.76 5.36 294.20 5.65Q293.64 5.95 293.33 6.48Q293.02 7.00 293.02 7.72L293.02 7.72Q293.02 8.56 293.44 9.39Q293.86 10.22 294.59 11.12Q295.33 12.03 296.29 13.14L296.29 13.14L308.33 27L302.93 27L292.92 15.77Q291.86 14.56 290.87 13.33Q289.88 12.10 289.24 10.70Q288.59 9.31 288.59 7.67L288.59 7.67Q288.59 5.84 289.45 4.38Q290.30 2.92 291.85 2.07Q293.40 1.23 295.48 1.23L295.48 1.23Q297.52 1.23 298.99 2.04Q300.46 2.85 301.26 4.21Q302.06 5.57 302.06 7.23L302.06 7.23Q302.06 8.41 301.64 9.45Q301.22 10.49 300.47 11.38Q299.72 12.27 298.68 13.04L298.68 13.04L293.48 16.78Q292.44 17.55 291.90 18.31Q291.36 19.07 291.36 20.08L291.36 20.08Q291.36 21.04 291.82 21.75Q292.29 22.47 293.11 22.86Q293.93 23.24 295.02 23.24L295.02 23.24Q296.40 23.24 297.74 22.63Q299.07 22.01 300.16 20.87Q301.24 19.74 301.88 18.16Q302.52 16.58 302.52 14.66L302.52 14.66L306.81 14.66Q306.81 17.02 306.30 18.87Q305.79 20.73 304.90 22.08Q304.01 23.43 302.88 24.28L302.88 24.28L301.57 25.14Q300.16 26.28 298.37 26.83Q296.58 27.38 294.87 27.38ZM325.66 27.34L325.66 27.34Q322.27 27.34 319.60 25.80Q316.93 24.27 315.38 21.34Q313.83 18.42 313.83 14.29L313.83 14.29Q313.83 10.13 315.39 7.20Q316.94 4.27 319.63 2.73Q322.31 1.19 325.66 1.19L325.66 1.19Q327.83 1.19 329.70 1.80Q331.57 2.41 333.02 3.57Q334.48 4.73 335.40 6.42Q336.32 8.10 336.61 10.23L336.61 10.23L331.33 10.23Q331.16 9.19 330.67 8.38Q330.19 7.57 329.46 7.00Q328.73 6.42 327.79 6.12Q326.85 5.83 325.76 5.83L325.76 5.83Q323.78 5.83 322.27 6.82Q320.77 7.81 319.95 9.70Q319.13 11.58 319.13 14.29L319.13 14.29Q319.13 17.04 319.97 18.92Q320.81 20.80 322.29 21.75Q323.78 22.71 325.74 22.71L325.74 22.71Q326.84 22.71 327.77 22.41Q328.70 22.11 329.44 21.54Q330.19 20.97 330.67 20.15Q331.16 19.33 331.35 18.30L331.35 18.30L336.63 18.30Q336.43 20.06 335.58 21.69Q334.73 23.31 333.33 24.59Q331.93 25.87 330.00 26.61Q328.07 27.34 325.66 27.34ZM343.36 27.38L343.36 27.38Q341.55 27.38 340.11 26.74Q338.66 26.09 337.83 24.82Q337.00 23.55 337.00 21.65L337.00 21.65Q337.00 20.06 337.59 18.98Q338.18 17.91 339.20 17.26Q340.22 16.61 341.51 16.27Q342.80 15.93 344.22 15.79L344.22 15.79Q345.87 15.62 346.89 15.47Q347.91 15.33 348.38 15.01Q348.85 14.70 348.85 14.08L348.85 14.08L348.85 13.99Q348.85 13.17 348.51 12.61Q348.16 12.05 347.50 11.75Q346.83 11.45 345.86 11.45L345.86 11.45Q344.87 11.45 344.13 11.75Q343.40 12.05 342.93 12.54Q342.47 13.04 342.25 13.65L342.25 13.65L337.55 12.87Q338.05 11.21 339.19 10.05Q340.34 8.88 342.04 8.27Q343.74 7.65 345.86 7.65L345.86 7.65Q347.41 7.65 348.86 8.02Q350.32 8.39 351.47 9.16Q352.62 9.93 353.30 11.16Q353.97 12.39 353.97 14.13L353.97 14.13L353.97 27L349.12 27L349.12 24.35L348.95 24.35Q348.49 25.24 347.72 25.91Q346.95 26.59 345.87 26.98Q344.78 27.38 343.36 27.38ZM344.81 23.77L344.81 23.77Q346.03 23.77 346.94 23.29Q347.86 22.81 348.37 21.99Q348.88 21.17 348.88 20.16L348.88 20.16L348.88 18.10Q348.66 18.27 348.20 18.40Q347.74 18.54 347.17 18.64Q346.61 18.75 346.06 18.83Q345.52 18.92 345.09 18.97L345.09 18.97Q344.15 19.10 343.43 19.41Q342.71 19.72 342.32 20.22Q341.93 20.73 341.93 21.51L341.93 21.51Q341.93 22.25 342.30 22.75Q342.68 23.26 343.32 23.51Q343.96 23.77 344.81 23.77ZM361.20 27L356.07 27L356.07 7.89L361.03 7.89L361.03 11.23L361.24 11.23Q361.77 9.45 363.00 8.54Q364.24 7.64 365.85 7.64L365.85 7.64Q366.24 7.64 366.70 7.68Q367.15 7.72 367.51 7.81L367.51 7.81L367.51 12.39Q367.17 12.27 366.52 12.20Q365.87 12.13 365.29 12.13L365.29 12.13Q364.12 12.13 363.18 12.64Q362.24 13.14 361.72 14.04Q361.20 14.93 361.20 16.13L361.20 16.13L361.20 27ZM376.68 27.38L376.68 27.38Q373.76 27.38 371.64 26.18Q369.52 24.98 368.39 22.78Q367.25 20.57 367.25 17.55L367.25 17.55Q367.25 14.59 368.38 12.37Q369.51 10.15 371.57 8.90Q373.64 7.65 376.43 7.65L376.43 7.65Q378.31 7.65 379.93 8.25Q381.55 8.85 382.78 10.06Q384.01 11.26 384.71 13.07Q385.40 14.88 385.40 17.34L385.40 17.34L385.40 18.78L369.35 18.78L369.35 15.57L382.89 15.57L380.49 16.42Q380.49 14.93 380.04 13.83Q379.59 12.73 378.69 12.12Q377.79 11.52 376.46 11.52L376.46 11.52Q375.14 11.52 374.21 12.13Q373.28 12.75 372.80 13.80Q372.32 14.85 372.32 16.20L372.32 16.20L372.32 18.47Q372.32 20.13 372.88 21.26Q373.44 22.39 374.44 22.95Q375.44 23.51 376.77 23.51L376.77 23.51Q377.67 23.51 378.41 23.26Q379.14 23.00 379.66 22.50Q380.19 21.99 380.46 21.26L380.46 21.26L385.11 22.13Q384.65 23.70 383.50 24.89Q382.36 26.08 380.64 26.73Q378.92 27.38 376.68 27.38ZM395.26 27.38L395.26 27.38Q392.34 27.38 390.22 26.18Q388.10 24.98 386.96 22.78Q385.82 20.57 385.82 17.55L385.82 17.55Q385.82 14.59 386.95 12.37Q388.08 10.15 390.15 8.90Q392.22 7.65 395.00 7.65L395.00 7.65Q396.88 7.65 398.50 8.25Q400.13 8.85 401.36 10.06Q402.59 11.26 403.28 13.07Q403.97 14.88 403.97 17.34L403.97 17.34L403.97 18.78L387.93 18.78L387.93 15.57L401.46 15.57L399.07 16.42Q399.07 14.93 398.62 13.83Q398.16 12.73 397.27 12.12Q396.37 11.52 395.04 11.52L395.04 11.52Q393.72 11.52 392.79 12.13Q391.86 12.75 391.38 13.80Q390.90 14.85 390.90 16.20L390.90 16.20L390.90 18.47Q390.90 20.13 391.45 21.26Q392.01 22.39 393.01 22.95Q394.01 23.51 395.34 23.51L395.34 23.51Q396.25 23.51 396.98 23.26Q397.72 23.00 398.24 22.50Q398.76 21.99 399.03 21.26L399.03 21.26L403.68 22.13Q403.22 23.70 402.08 24.89Q400.93 26.08 399.21 26.73Q397.50 27.38 395.26 27.38ZM410.33 27L405.20 27L405.20 7.89L410.16 7.89L410.16 11.23L410.36 11.23Q410.89 9.45 412.13 8.54Q413.37 7.64 414.98 7.64L414.98 7.64Q415.37 7.64 415.82 7.68Q416.28 7.72 416.63 7.81L416.63 7.81L416.63 12.39Q416.29 12.27 415.64 12.20Q414.99 12.13 414.41 12.13L414.41 12.13Q413.25 12.13 412.31 12.64Q411.37 13.14 410.85 14.04Q410.33 14.93 410.33 16.13L410.33 16.13L410.33 27ZM428.53 27L423.31 27L423.31 1.54L433.24 1.54Q436.15 1.54 438.18 2.56Q440.21 3.59 441.28 5.45Q442.35 7.31 442.35 9.82L442.35 9.82Q442.35 12.34 441.27 14.16Q440.18 15.98 438.12 16.94Q436.06 17.91 433.12 17.91L433.12 17.91L426.39 17.91L426.39 13.69L432.28 13.69Q433.89 13.69 434.92 13.25Q435.94 12.82 436.45 11.95Q436.97 11.09 436.97 9.82L436.97 9.82Q436.97 8.53 436.45 7.65Q435.94 6.77 434.91 6.30Q433.87 5.84 432.27 5.84L432.27 5.84L428.53 5.84L428.53 27ZM443.26 27L437.48 27L431.28 15.41L436.93 15.41L443.26 27ZM452.53 27.38L452.53 27.38Q449.61 27.38 447.49 26.18Q445.37 24.98 444.24 22.78Q443.10 20.57 443.10 17.55L443.10 17.55Q443.10 14.59 444.23 12.37Q445.36 10.15 447.42 8.90Q449.49 7.65 452.28 7.65L452.28 7.65Q454.16 7.65 455.78 8.25Q457.40 8.85 458.64 10.06Q459.87 11.26 460.56 13.07Q461.25 14.88 461.25 17.34L461.25 17.34L461.25 18.78L445.20 18.78L445.20 15.57L458.74 15.57L456.35 16.42Q456.35 14.93 455.89 13.83Q455.44 12.73 454.54 12.12Q453.65 11.52 452.31 11.52L452.31 11.52Q451.00 11.52 450.06 12.13Q449.13 12.75 448.65 13.80Q448.18 14.85 448.18 16.20L448.18 16.20L448.18 18.47Q448.18 20.13 448.73 21.26Q449.29 22.39 450.29 22.95Q451.29 23.51 452.62 23.51L452.62 23.51Q453.53 23.51 454.26 23.26Q455.00 23.00 455.52 22.50Q456.04 21.99 456.31 21.26L456.31 21.26L460.96 22.13Q460.50 23.70 459.35 24.89Q458.21 26.08 456.49 26.73Q454.77 27.38 452.53 27.38ZM471.02 27.38L471.02 27.38Q468.14 27.38 466.04 26.14Q463.95 24.90 462.81 22.68Q461.68 20.47 461.68 17.53L461.68 17.53Q461.68 14.56 462.81 12.35Q463.95 10.13 466.04 8.89Q468.14 7.65 471.02 7.65L471.02 7.65Q472.72 7.65 474.15 8.10Q475.59 8.54 476.70 9.36Q477.81 10.18 478.53 11.36Q479.24 12.54 479.52 14.01L479.52 14.01L474.75 14.90Q474.60 14.15 474.27 13.56Q473.95 12.97 473.48 12.55Q473.02 12.13 472.42 11.91Q471.81 11.69 471.07 11.69L471.07 11.69Q469.71 11.69 468.78 12.42Q467.84 13.16 467.37 14.47Q466.90 15.79 466.90 17.52L466.90 17.52Q466.90 19.22 467.37 20.53Q467.84 21.84 468.78 22.59Q469.71 23.34 471.07 23.34L471.07 23.34Q471.81 23.34 472.42 23.11Q473.04 22.88 473.52 22.45Q474.00 22.01 474.32 21.39Q474.65 20.78 474.78 20.01L474.78 20.01L479.55 20.88Q479.28 22.40 478.56 23.59Q477.84 24.78 476.73 25.63Q475.62 26.49 474.18 26.93Q472.73 27.38 471.02 27.38ZM489.34 27.38L489.34 27.38Q486.47 27.38 484.37 26.14Q482.27 24.90 481.13 22.68Q479.99 20.47 479.99 17.53L479.99 17.53Q479.99 14.56 481.13 12.35Q482.27 10.13 484.37 8.89Q486.47 7.65 489.34 7.65L489.34 7.65Q492.23 7.65 494.32 8.89Q496.42 10.13 497.55 12.35Q498.69 14.56 498.69 17.53L498.69 17.53Q498.69 20.47 497.55 22.68Q496.42 24.90 494.32 26.14Q492.23 27.38 489.34 27.38ZM489.34 23.34L489.34 23.34Q490.71 23.34 491.63 22.58Q492.55 21.82 493.02 20.50Q493.48 19.17 493.48 17.52L493.48 17.52Q493.48 15.82 493.02 14.51Q492.55 13.19 491.63 12.44Q490.71 11.69 489.34 11.69L489.34 11.69Q487.97 11.69 487.06 12.44Q486.15 13.19 485.68 14.51Q485.22 15.82 485.22 17.52L485.22 17.52Q485.22 19.17 485.68 20.50Q486.15 21.82 487.06 22.58Q487.97 23.34 489.34 23.34ZM505.11 27L499.99 27L499.99 7.89L504.74 7.89L504.99 12.64L504.62 12.64Q505.06 10.88 505.93 9.77Q506.79 8.66 507.95 8.13Q509.11 7.60 510.39 7.60L510.39 7.60Q512.46 7.60 513.73 8.91Q514.99 10.22 515.59 12.95L515.59 12.95L514.99 12.95Q515.42 11.12 516.38 9.94Q517.35 8.75 518.67 8.18Q520.00 7.60 521.45 7.60L521.45 7.60Q523.21 7.60 524.59 8.37Q525.96 9.14 526.76 10.59Q527.55 12.03 527.55 14.11L527.55 14.11L527.55 27L522.43 27L522.43 15.09Q522.43 13.46 521.55 12.68Q520.67 11.89 519.38 11.89L519.38 11.89Q518.43 11.89 517.72 12.31Q517.01 12.73 516.62 13.48Q516.24 14.23 516.24 15.24L516.24 15.24L516.24 27L511.28 27L511.28 14.95Q511.28 13.55 510.45 12.72Q509.63 11.89 508.31 11.89L508.31 11.89Q507.40 11.89 506.68 12.30Q505.95 12.71 505.53 13.51Q505.11 14.30 505.11 15.45L505.11 15.45L505.11 27ZM534.78 27L529.65 27L529.65 7.89L534.40 7.89L534.66 12.64L534.28 12.64Q534.73 10.88 535.59 9.77Q536.45 8.66 537.62 8.13Q538.78 7.60 540.06 7.60L540.06 7.60Q542.13 7.60 543.39 8.91Q544.66 10.22 545.26 12.95L545.26 12.95L544.66 12.95Q545.08 11.12 546.05 9.94Q547.02 8.75 548.34 8.18Q549.66 7.60 551.12 7.60L551.12 7.60Q552.88 7.60 554.25 8.37Q555.63 9.14 556.42 10.59Q557.22 12.03 557.22 14.11L557.22 14.11L557.22 27L552.09 27L552.09 15.09Q552.09 13.46 551.21 12.68Q550.33 11.89 549.05 11.89L549.05 11.89Q548.09 11.89 547.38 12.31Q546.67 12.73 546.29 13.48Q545.91 14.23 545.91 15.24L545.91 15.24L545.91 27L540.95 27L540.95 14.95Q540.95 13.55 540.12 12.72Q539.29 11.89 537.98 11.89L537.98 11.89Q537.07 11.89 536.34 12.30Q535.62 12.71 535.20 13.51Q534.78 14.30 534.78 15.45L534.78 15.45L534.78 27ZM567.95 27.38L567.95 27.38Q565.03 27.38 562.91 26.18Q560.79 24.98 559.65 22.78Q558.52 20.57 558.52 17.55L558.52 17.55Q558.52 14.59 559.64 12.37Q560.77 10.15 562.84 8.90Q564.91 7.65 567.69 7.65L567.69 7.65Q569.57 7.65 571.20 8.25Q572.82 8.85 574.05 10.06Q575.28 11.26 575.97 13.07Q576.66 14.88 576.66 17.34L576.66 17.34L576.66 18.78L560.62 18.78L560.62 15.57L574.15 15.57L571.76 16.42Q571.76 14.93 571.31 13.83Q570.85 12.73 569.96 12.12Q569.06 11.52 567.73 11.52L567.73 11.52Q566.41 11.52 565.48 12.13Q564.55 12.75 564.07 13.80Q563.59 14.85 563.59 16.20L563.59 16.20L563.59 18.47Q563.59 20.13 564.15 21.26Q564.70 22.39 565.70 22.95Q566.70 23.51 568.03 23.51L568.03 23.51Q568.94 23.51 569.68 23.26Q570.41 23.00 570.93 22.50Q571.45 21.99 571.73 21.26L571.73 21.26L576.37 22.13Q575.91 23.70 574.77 24.89Q573.62 26.08 571.91 26.73Q570.19 27.38 567.95 27.38ZM583.02 15.94L583.02 15.94L583.02 27L577.89 27L577.89 7.89L582.73 7.89L582.82 12.66L582.51 12.66Q583.26 10.27 584.79 8.96Q586.32 7.65 588.75 7.65L588.75 7.65Q590.73 7.65 592.20 8.52Q593.67 9.38 594.49 11.00Q595.31 12.61 595.31 14.85L595.31 14.85L595.31 27L590.18 27L590.18 15.74Q590.18 13.96 589.27 12.95Q588.35 11.94 586.73 11.94L586.73 11.94Q585.65 11.94 584.81 12.41Q583.96 12.88 583.49 13.77Q583.02 14.66 583.02 15.94ZM604.40 27.32L604.40 27.32Q602.19 27.32 600.42 26.19Q598.66 25.05 597.63 22.86Q596.60 20.66 596.60 17.48L596.60 17.48Q596.60 14.22 597.66 12.03Q598.72 9.84 600.48 8.75Q602.24 7.65 604.36 7.65L604.36 7.65Q605.99 7.65 607.06 8.20Q608.14 8.75 608.81 9.55Q609.47 10.35 609.80 11.11L609.80 11.11L609.97 11.11L609.97 1.54L615.10 1.54L615.10 27L610.05 27L610.05 23.94L609.80 23.94Q609.46 24.71 608.78 25.49Q608.11 26.27 607.03 26.79Q605.95 27.32 604.40 27.32ZM605.97 23.21L605.97 23.21Q607.27 23.21 608.19 22.49Q609.11 21.77 609.59 20.48Q610.07 19.19 610.07 17.46L610.07 17.46Q610.07 15.72 609.60 14.45Q609.13 13.17 608.21 12.47Q607.29 11.76 605.97 11.76L605.97 11.76Q604.62 11.76 603.71 12.49Q602.79 13.23 602.33 14.51Q601.87 15.79 601.87 17.46L601.87 17.46Q601.87 19.14 602.34 20.44Q602.81 21.74 603.72 22.47Q604.64 23.21 605.97 23.21ZM622.53 27.38L622.53 27.38Q620.72 27.38 619.27 26.74Q617.83 26.09 617.00 24.82Q616.17 23.55 616.17 21.65L616.17 21.65Q616.17 20.06 616.76 18.98Q617.35 17.91 618.37 17.26Q619.38 16.61 620.67 16.27Q621.96 15.93 623.38 15.79L623.38 15.79Q625.04 15.62 626.06 15.47Q627.07 15.33 627.54 15.01Q628.01 14.70 628.01 14.08L628.01 14.08L628.01 13.99Q628.01 13.17 627.67 12.61Q627.33 12.05 626.66 11.75Q626.00 11.45 625.02 11.45L625.02 11.45Q624.03 11.45 623.30 11.75Q622.56 12.05 622.10 12.54Q621.64 13.04 621.42 13.65L621.42 13.65L616.72 12.87Q617.21 11.21 618.36 10.05Q619.50 8.88 621.20 8.27Q622.90 7.65 625.02 7.65L625.02 7.65Q626.58 7.65 628.03 8.02Q629.48 8.39 630.64 9.16Q631.79 9.93 632.47 11.16Q633.14 12.39 633.14 14.13L633.14 14.13L633.14 27L628.29 27L628.29 24.35L628.12 24.35Q627.65 25.24 626.89 25.91Q626.12 26.59 625.03 26.98Q623.95 27.38 622.53 27.38ZM623.98 23.77L623.98 23.77Q625.19 23.77 626.11 23.29Q627.02 22.81 627.54 21.99Q628.05 21.17 628.05 20.16L628.05 20.16L628.05 18.10Q627.83 18.27 627.36 18.40Q626.90 18.54 626.34 18.64Q625.77 18.75 625.23 18.83Q624.68 18.92 624.25 18.97L624.25 18.97Q623.31 19.10 622.60 19.41Q621.88 19.72 621.49 20.22Q621.09 20.73 621.09 21.51L621.09 21.51Q621.09 22.25 621.47 22.75Q621.84 23.26 622.49 23.51Q623.13 23.77 623.98 23.77ZM633.39 7.89L644.73 7.89L644.73 11.81L633.39 11.81L633.39 7.89ZM636.03 21.86L636.03 3.35L641.15 3.35L641.15 21.41Q641.15 22.32 641.56 22.75Q641.96 23.19 642.90 23.19L642.90 23.19Q643.19 23.19 643.72 23.11Q644.25 23.04 644.52 22.97L644.52 22.97L645.26 26.81Q644.40 27.07 643.55 27.17Q642.71 27.27 641.94 27.27L641.94 27.27Q639.07 27.27 637.55 25.87Q636.03 24.47 636.03 21.86L636.03 21.86ZM650.91 27L645.78 27L645.78 7.89L650.91 7.89L650.91 27ZM648.35 5.40L648.35 5.40Q647.18 5.40 646.36 4.63Q645.54 3.86 645.54 2.77L645.54 2.77Q645.54 1.67 646.36 0.90Q647.18 0.13 648.35 0.13L648.35 0.13Q649.51 0.13 650.34 0.90Q651.17 1.66 651.17 2.77L651.17 2.77Q651.17 3.86 650.34 4.63Q649.51 5.40 648.35 5.40ZM661.54 27.38L661.54 27.38Q658.67 27.38 656.56 26.14Q654.46 24.90 653.33 22.68Q652.19 20.47 652.19 17.53L652.19 17.53Q652.19 14.56 653.33 12.35Q654.46 10.13 656.56 8.89Q658.67 7.65 661.54 7.65L661.54 7.65Q664.43 7.65 666.52 8.89Q668.61 10.13 669.75 12.35Q670.89 14.56 670.89 17.53L670.89 17.53Q670.89 20.47 669.75 22.68Q668.61 24.90 666.52 26.14Q664.43 27.38 661.54 27.38ZM661.54 23.34L661.54 23.34Q662.90 23.34 663.83 22.58Q664.75 21.82 665.21 20.50Q665.67 19.17 665.67 17.52L665.67 17.52Q665.67 15.82 665.21 14.51Q664.75 13.19 663.83 12.44Q662.90 11.69 661.54 11.69L661.54 11.69Q660.17 11.69 659.26 12.44Q658.34 13.19 657.88 14.51Q657.42 15.82 657.42 17.52L657.42 17.52Q657.42 19.17 657.88 20.50Q658.34 21.82 659.26 22.58Q660.17 23.34 661.54 23.34ZM677.31 15.94L677.31 15.94L677.31 27L672.18 27L672.18 7.89L677.02 7.89L677.10 12.66L676.80 12.66Q677.55 10.27 679.08 8.96Q680.61 7.65 683.03 7.65L683.03 7.65Q685.02 7.65 686.49 8.52Q687.96 9.38 688.78 11.00Q689.60 12.61 689.60 14.85L689.60 14.85L689.60 27L684.47 27L684.47 15.74Q684.47 13.96 683.56 12.95Q682.64 11.94 681.02 11.94L681.02 11.94Q679.94 11.94 679.10 12.41Q678.25 12.88 677.78 13.77Q677.31 14.66 677.31 15.94Z"/></g>
        
      </svg>
    